<?xml version="1.0" encoding="UTF-8"?>
<svg xmlns="http://www.w3.org/2000/svg" xmlns:xlink="http://www.w3.org/1999/xlink" width="612" height="792" viewBox="0 0 612 792">
<path fill-rule="nonzero" fill="rgb(19.999695%, 30.589294%, 56.858826%)" fill-opacity="1" d="M 0 779.566406 L 611.480469 779.566406 L 611.480469 790.683594 L 0 790.683594 Z M 0 779.566406 "/>
<path fill-rule="nonzero" fill="rgb(27.449036%, 80.389404%, 81.17981%)" fill-opacity="1" d="M 311.648438 47.058594 L 308.558594 43.289062 C 308.472656 43.167969 308.390625 43.050781 308.277344 42.953125 L 306.953125 41.339844 L 305.640625 42.945312 C 305.519531 43.054688 305.429688 43.179688 305.339844 43.3125 L 302.265625 47.0625 C 203.414062 165.15625 167.503906 260.898438 191.972656 340.003906 C 211.75 403.472656 279.398438 414.933594 300.714844 416.480469 L 300.714844 502.847656 C 300.714844 506.484375 303.324219 509.085938 306.953125 509.085938 C 310.589844 509.085938 313.183594 506.484375 313.183594 502.847656 L 313.183594 416.472656 C 334.515625 414.390625 402.15625 403.464844 421.9375 340 C 446.410156 260.898438 410.5 165.183594 311.648438 47.058594 Z M 306.953125 202.519531 C 311.636719 202.519531 315.445312 206.324219 315.445312 211.007812 C 315.445312 215.679688 311.636719 219.492188 306.953125 219.492188 C 302.277344 219.492188 298.464844 215.6875 298.464844 211.007812 C 298.464844 206.324219 302.277344 202.519531 306.953125 202.519531 Z M 306.953125 332.339844 C 312 332.339844 316.09375 336.441406 316.09375 341.484375 C 316.09375 345.835938 313.035156 349.46875 308.953125 350.386719 C 308.308594 350.53125 307.640625 350.621094 306.953125 350.621094 C 306.265625 350.621094 305.59375 350.53125 304.953125 350.386719 C 300.875 349.46875 297.8125 345.835938 297.8125 341.484375 C 297.816406 336.441406 301.914062 332.339844 306.953125 332.339844 Z M 413.710938 318.992188 L 393.371094 318.992188 L 369.4375 295.054688 C 369.066406 294.683594 368.542969 294.46875 368.015625 294.46875 L 360.992188 294.46875 C 360.042969 289.316406 355.539062 285.382812 350.109375 285.382812 C 344 285.382812 339.019531 290.359375 339.019531 296.46875 C 339.019531 302.582031 344 307.5625 350.109375 307.5625 C 355.535156 307.5625 360.042969 303.628906 360.992188 298.472656 L 367.191406 298.472656 L 391.128906 322.410156 C 391.5 322.78125 392.015625 322.992188 392.546875 322.992188 L 412.9375 322.992188 C 411.96875 327.503906 410.8125 331.957031 409.441406 336.339844 C 392.503906 391.75 334.664062 402.117188 314.074219 403.90625 C 313.792969 403.933594 313.515625 403.953125 313.238281 403.980469 L 313.179688 403.988281 C 311.78125 404.109375 310.367188 404.160156 308.945312 404.1875 L 308.945312 387.933594 L 327.519531 369.359375 L 338.589844 369.359375 C 339.539062 374.515625 344.054688 378.445312 349.476562 378.445312 C 355.601562 378.445312 360.5625 373.472656 360.5625 367.355469 C 360.5625 361.238281 355.601562 356.265625 349.476562 356.265625 C 344.046875 356.265625 339.539062 360.199219 338.589844 365.355469 L 326.6875 365.355469 C 326.160156 365.355469 325.652344 365.5625 325.269531 365.941406 L 308.941406 382.269531 L 308.941406 353.214844 C 314.570312 352.253906 318.882812 347.386719 318.882812 341.484375 C 318.882812 334.898438 313.523438 329.539062 306.9375 329.539062 C 300.355469 329.539062 295 334.898438 295 341.484375 C 295 347.378906 299.304688 352.261719 304.933594 353.214844 L 304.933594 389.851562 L 286.386719 366.65625 L 286.386719 351.4375 C 286.386719 351.316406 286.335938 351.195312 286.308594 351.074219 C 289.855469 346.398438 289.546875 339.714844 285.28125 335.453125 C 285.796875 335.960938 286.304688 336.472656 286.523438 336.683594 C 286.386719 336.554688 286.046875 336.210938 285.28125 335.445312 C 284.441406 334.609375 284.070312 334.230469 283.972656 334.140625 C 284.121094 334.285156 284.699219 334.867188 285.277344 335.441406 C 280.621094 330.789062 273.046875 330.789062 268.398438 335.445312 C 263.742188 340.109375 263.742188 347.679688 268.398438 352.339844 C 272.179688 356.125 277.875 356.773438 282.382812 354.410156 L 282.382812 367.359375 C 282.382812 367.8125 282.535156 368.253906 282.824219 368.609375 L 304.945312 396.265625 L 304.945312 404.085938 C 301.890625 403.941406 298.863281 403.617188 295.933594 403.011719 C 272.683594 400.253906 220.511719 388.003906 204.570312 335.859375 C 203.988281 334.011719 203.460938 332.144531 202.953125 330.28125 L 217.53125 315.707031 L 254.363281 315.707031 C 254.890625 315.707031 255.40625 315.488281 255.777344 315.121094 L 259.140625 311.765625 C 263.453125 314.738281 269.417969 314.332031 273.257812 310.492188 C 277.578125 306.167969 277.578125 299.132812 273.257812 294.808594 C 268.933594 290.484375 261.894531 290.484375 257.578125 294.808594 C 253.734375 298.648438 253.324219 304.613281 256.304688 308.929688 L 253.53125 311.703125 L 216.699219 311.703125 C 216.171875 311.703125 215.65625 311.921875 215.285156 312.289062 L 201.8125 325.765625 C 193.167969 289.714844 197.714844 249.597656 215.816406 204.867188 C 215.957031 204.898438 216.089844 204.953125 216.242188 204.953125 L 228.699219 204.953125 L 256.304688 232.558594 C 253.324219 236.878906 253.738281 242.84375 257.578125 246.683594 C 261.894531 251 268.933594 251 273.257812 246.683594 C 277.578125 242.359375 277.578125 235.316406 273.257812 231 C 269.417969 227.160156 263.445312 226.75 259.132812 229.726562 L 230.941406 201.53125 C 230.570312 201.160156 230.054688 200.945312 229.53125 200.945312 L 217.464844 200.945312 C 234.957031 159.273438 264.042969 113.628906 304.953125 63.597656 L 304.953125 83.484375 L 282.980469 105.457031 C 282.605469 105.828125 282.394531 106.347656 282.394531 106.871094 L 282.394531 172.347656 C 277.234375 173.296875 273.304688 177.804688 273.304688 183.230469 C 273.304688 189.347656 278.285156 194.324219 284.390625 194.324219 C 290.511719 194.324219 295.480469 189.347656 295.480469 183.230469 C 295.480469 177.804688 291.558594 173.296875 286.394531 172.347656 L 286.394531 107.695312 L 304.945312 89.140625 L 304.945312 200.117188 C 299.785156 201.0625 295.855469 205.574219 295.855469 211.007812 C 295.855469 217.121094 300.835938 222.09375 306.949219 222.09375 C 313.0625 222.09375 318.035156 217.117188 318.035156 211.007812 C 318.035156 205.574219 314.105469 201.066406 308.945312 200.117188 L 308.945312 122.132812 L 327.152344 140.339844 L 327.152344 181.707031 C 321.996094 182.660156 318.070312 187.167969 318.070312 192.59375 C 318.070312 198.707031 323.042969 203.679688 329.15625 203.679688 C 335.269531 203.679688 340.242188 198.703125 340.242188 192.59375 C 340.242188 187.164062 336.3125 182.652344 331.15625 181.707031 L 331.15625 139.515625 C 331.15625 138.988281 330.941406 138.480469 330.570312 138.101562 L 308.945312 116.480469 L 308.945312 84.320312 C 308.945312 84.316406 308.945312 84.308594 308.945312 84.304688 L 308.945312 63.59375 C 337.890625 98.984375 360.910156 132.171875 378.101562 163.339844 C 377.945312 163.433594 377.746094 163.410156 377.605469 163.546875 L 366.605469 174.546875 C 366.238281 174.917969 366.027344 175.4375 366.027344 175.960938 L 366.027344 221.269531 L 354.902344 232.390625 C 350.589844 229.410156 344.621094 229.820312 340.785156 233.652344 C 341.859375 232.570312 342.929688 231.5 340.773438 233.65625 C 340.769531 233.65625 340.769531 233.664062 340.761719 233.667969 C 336.457031 237.992188 336.460938 245.015625 340.773438 249.339844 C 345.097656 253.664062 352.132812 253.664062 356.457031 249.339844 C 360.292969 245.496094 360.703125 239.535156 357.730469 235.21875 L 369.4375 223.507812 C 369.808594 223.132812 370.023438 222.617188 370.023438 222.09375 L 370.023438 176.78125 L 380 166.804688 C 410.972656 224.097656 422.027344 274.472656 413.710938 318.992188 Z M 358.597656 296.46875 C 358.597656 297.160156 358.488281 297.828125 358.328125 298.472656 C 357.429688 302.183594 354.105469 304.957031 350.109375 304.957031 C 345.429688 304.957031 341.621094 301.152344 341.621094 296.46875 C 341.621094 291.796875 345.425781 287.980469 350.109375 287.980469 C 354.097656 287.980469 357.429688 290.757812 358.335938 294.464844 C 358.492188 295.113281 358.597656 295.773438 358.597656 296.46875 Z M 341.003906 367.355469 C 341.003906 366.660156 341.113281 366 341.269531 365.355469 C 342.175781 361.644531 345.507812 358.871094 349.492188 358.871094 C 354.175781 358.871094 357.984375 362.679688 357.984375 367.359375 C 357.984375 372.042969 354.179688 375.847656 349.492188 375.847656 C 345.511719 375.847656 342.175781 373.082031 341.269531 369.363281 C 341.105469 368.714844 341.003906 368.046875 341.003906 367.355469 Z M 270.394531 350.355469 C 266.824219 346.789062 266.824219 340.988281 270.394531 337.425781 C 273.960938 333.867188 279.753906 333.867188 283.316406 337.425781 C 286.390625 340.5 286.800781 345.238281 284.566406 348.773438 C 284.210938 349.332031 283.808594 349.863281 283.316406 350.355469 C 282.832031 350.839844 282.289062 351.25 281.734375 351.605469 C 278.203125 353.835938 273.472656 353.429688 270.394531 350.355469 Z M 259.421875 296.644531 C 262.726562 293.335938 268.113281 293.335938 271.421875 296.644531 C 274.734375 299.945312 274.734375 305.335938 271.421875 308.640625 C 268.605469 311.464844 264.285156 311.859375 261.023438 309.875 C 260.453125 309.53125 259.914062 309.132812 259.421875 308.640625 C 258.933594 308.152344 258.539062 307.609375 258.1875 307.039062 C 256.207031 303.777344 256.601562 299.460938 259.421875 296.644531 Z M 261.023438 231.597656 C 264.285156 229.613281 268.605469 230.003906 271.421875 232.828125 C 274.734375 236.136719 274.734375 241.519531 271.421875 244.828125 C 268.121094 248.140625 262.730469 248.140625 259.421875 244.828125 C 256.601562 242.007812 256.207031 237.691406 258.195312 234.425781 C 258.539062 233.859375 258.933594 233.3125 259.421875 232.828125 C 259.914062 232.335938 260.453125 231.941406 261.023438 231.597656 Z M 284.398438 174.75 C 289.082031 174.75 292.886719 178.558594 292.886719 183.238281 C 292.886719 187.921875 289.082031 191.726562 284.398438 191.726562 C 279.726562 191.726562 275.921875 187.921875 275.921875 183.238281 C 275.914062 178.554688 279.71875 174.75 284.398438 174.75 Z M 329.167969 184.105469 C 333.847656 184.105469 337.65625 187.910156 337.65625 192.59375 C 337.65625 197.273438 333.851562 201.082031 329.167969 201.082031 C 324.496094 201.082031 320.679688 197.273438 320.679688 192.59375 C 320.679688 187.910156 324.488281 184.105469 329.167969 184.105469 Z M 354.628906 247.5 C 351.320312 250.808594 345.9375 250.808594 342.628906 247.5 C 339.320312 244.191406 339.320312 238.804688 342.628906 235.496094 C 345.453125 232.675781 349.769531 232.28125 353.027344 234.269531 C 353.597656 234.613281 354.136719 235.011719 354.628906 235.496094 C 355.121094 235.988281 355.511719 236.527344 355.863281 237.097656 C 357.847656 240.367188 357.449219 244.683594 354.628906 247.5 Z M 354.628906 247.5 "/>
<path fill-rule="nonzero" fill="rgb(27.449036%, 80.389404%, 81.17981%)" fill-opacity="1" d="M 273.261719 230.988281 C 277.585938 235.304688 268.9375 226.664062 273.261719 230.988281 Z M 273.261719 230.988281 "/>
<path fill-rule="nonzero" fill="rgb(27.449036%, 80.389404%, 81.17981%)" fill-opacity="1" d="M 257.582031 294.796875 C 261.902344 290.472656 253.257812 299.121094 257.582031 294.796875 Z M 257.582031 294.796875 "/>
<path fill-rule="nonzero" fill="rgb(27.449036%, 80.389404%, 81.17981%)" fill-opacity="1" d="M 397.246094 272.679688 C 393.847656 272.679688 391.136719 275.152344 390.496094 278.367188 L 323.914062 278.367188 L 323.914062 275.652344 L 316.671875 275.652344 L 316.671875 270.40625 L 323.914062 270.40625 L 323.914062 269.046875 L 345.207031 269.046875 C 345.554688 269.046875 345.90625 268.910156 346.15625 268.660156 L 365.902344 248.914062 L 386.804688 248.914062 C 387.441406 252.128906 390.148438 254.601562 393.5625 254.601562 C 397.4375 254.601562 400.582031 251.457031 400.582031 247.578125 C 400.582031 243.691406 397.4375 240.546875 393.5625 240.546875 C 390.148438 240.546875 387.441406 243.019531 386.804688 246.234375 L 365.339844 246.234375 C 364.988281 246.234375 364.644531 246.375 364.398438 246.628906 L 344.65625 266.371094 L 323.910156 266.371094 L 323.910156 263.402344 L 316.667969 263.402344 L 316.667969 258.164062 L 323.910156 258.164062 L 323.910156 251.175781 L 316.667969 251.175781 L 316.667969 245.933594 L 323.910156 245.933594 L 323.910156 243.746094 C 324.25 243.746094 324.59375 243.613281 324.847656 243.359375 L 345.898438 222.3125 C 346.152344 222.066406 346.285156 221.722656 346.285156 221.375 L 346.285156 165.554688 L 350.28125 161.558594 C 353.019531 163.378906 356.6875 163.21875 359.089844 160.804688 C 361.835938 158.058594 361.835938 153.613281 359.089844 150.867188 C 356.347656 148.121094 351.898438 148.121094 349.152344 150.867188 C 346.746094 153.273438 346.578125 156.9375 348.394531 159.664062 L 344 164.058594 C 343.75 164.3125 343.613281 164.65625 343.613281 165.003906 L 343.613281 220.804688 L 323.90625 240.519531 L 323.90625 238.9375 L 316.660156 238.9375 L 316.660156 234.515625 L 297.230469 234.515625 L 297.230469 238.9375 L 289.992188 238.9375 L 289.992188 240.519531 L 268.605469 219.125 L 268.605469 178.367188 C 268.605469 178.019531 268.457031 177.675781 268.207031 177.429688 L 259.570312 168.792969 C 261.398438 166.0625 261.234375 162.402344 258.816406 159.988281 C 256.078125 157.246094 251.628906 157.246094 248.886719 159.988281 C 246.140625 162.734375 246.140625 167.183594 248.882812 169.929688 C 251.292969 172.339844 254.964844 172.503906 257.691406 170.683594 L 265.929688 178.929688 L 265.929688 219.683594 C 265.929688 220.03125 266.078125 220.378906 266.328125 220.625 L 289.058594 243.359375 C 289.316406 243.613281 289.660156 243.746094 290 243.746094 L 290 245.933594 L 297.25 245.933594 L 297.25 251.179688 L 289.992188 251.179688 L 289.992188 258.167969 L 297.242188 258.167969 L 297.242188 263.414062 L 289.992188 263.414062 L 289.992188 265.183594 L 270.210938 265.183594 L 238.171875 233.136719 C 237.925781 232.894531 237.574219 232.746094 237.226562 232.746094 L 230.542969 232.746094 C 229.902344 229.53125 227.1875 227.058594 223.785156 227.058594 C 219.90625 227.058594 216.753906 230.207031 216.753906 234.082031 C 216.753906 237.964844 219.898438 241.113281 223.785156 241.113281 C 227.191406 241.113281 229.902344 238.640625 230.542969 235.425781 L 236.679688 235.425781 L 268.71875 267.464844 C 268.972656 267.710938 269.316406 267.859375 269.664062 267.859375 L 289.992188 267.859375 L 289.992188 270.417969 L 297.242188 270.417969 L 297.242188 275.664062 L 289.992188 275.664062 L 289.992188 278.378906 L 223.464844 278.378906 C 222.820312 275.160156 220.113281 272.6875 216.707031 272.6875 C 212.832031 272.6875 209.675781 275.839844 209.675781 279.714844 C 209.675781 283.597656 212.824219 286.742188 216.707031 286.742188 C 220.117188 286.742188 222.820312 284.269531 223.464844 281.050781 L 289.992188 281.050781 L 289.992188 282.65625 L 297.242188 282.65625 L 297.242188 287.902344 L 289.992188 287.902344 L 289.992188 294.890625 L 297.242188 294.890625 L 297.242188 300.136719 L 289.992188 300.136719 L 289.992188 301.519531 C 289.65625 301.519531 289.3125 301.644531 289.054688 301.898438 L 257.523438 333.425781 L 236.882812 333.425781 C 236.238281 330.210938 233.523438 327.738281 230.125 327.738281 C 226.238281 327.738281 223.09375 330.882812 223.09375 334.761719 C 223.09375 338.644531 226.238281 341.789062 230.125 341.789062 C 233.53125 341.789062 236.242188 339.316406 236.882812 336.09375 L 258.074219 336.09375 C 258.417969 336.09375 258.761719 335.960938 259.011719 335.707031 L 289.988281 304.726562 L 289.988281 307.125 L 297.238281 307.125 L 297.238281 315.902344 L 316.667969 315.902344 L 316.667969 307.125 L 323.910156 307.125 L 323.910156 304.726562 L 340.703125 321.527344 L 367.832031 321.527344 L 375.710938 329.398438 C 373.886719 332.132812 374.050781 335.796875 376.464844 338.203125 C 379.210938 340.949219 383.652344 340.949219 386.40625 338.203125 C 389.144531 335.457031 389.144531 331.011719 386.40625 328.261719 C 383.992188 325.859375 380.328125 325.691406 377.59375 327.507812 L 368.9375 318.851562 L 341.8125 318.851562 L 324.847656 301.894531 C 324.59375 301.636719 324.253906 301.507812 323.910156 301.507812 L 323.910156 300.132812 L 316.667969 300.132812 L 316.667969 294.886719 L 323.910156 294.886719 L 323.910156 287.898438 L 316.667969 287.898438 L 316.667969 282.652344 L 323.910156 282.652344 L 323.910156 281.046875 L 390.496094 281.046875 C 391.136719 284.261719 393.847656 286.734375 397.246094 286.734375 C 401.128906 286.734375 404.277344 283.589844 404.277344 279.710938 C 404.285156 275.824219 401.128906 272.679688 397.246094 272.679688 Z M 397.246094 272.679688 "/>
<path fill-rule="nonzero" fill="rgb(27.449036%, 80.389404%, 81.17981%)" fill-opacity="1" d="M 120.425781 686.039062 C 121.480469 686.699219 122.5 687.753906 123.488281 689.203125 C 124.476562 690.652344 124.972656 692.632812 124.972656 695.136719 L 124.972656 700.871094 L 109.152344 700.871094 C 105.859375 700.871094 103.417969 699.816406 101.835938 697.707031 C 100.253906 695.597656 99.464844 692.695312 99.464844 689.003906 L 99.464844 632.054688 C 99.464844 627.046875 98.246094 623.355469 95.804688 620.984375 C 93.367188 618.609375 90.300781 617.421875 86.609375 617.421875 C 84.5 617.421875 82.558594 617.6875 80.777344 618.214844 C 78.996094 618.742188 77.449219 619.335938 76.128906 619.992188 C 74.679688 620.652344 73.296875 621.445312 71.976562 622.367188 L 71.976562 681.886719 C 71.976562 683.074219 72.175781 683.929688 72.570312 684.457031 C 72.964844 684.984375 73.429688 685.511719 73.957031 686.039062 C 75.011719 686.699219 76.03125 687.753906 77.019531 689.203125 C 78.007812 690.652344 78.503906 692.632812 78.503906 695.136719 L 78.503906 700.871094 L 62.089844 700.871094 C 59.980469 700.871094 57.972656 699.71875 56.058594 697.410156 C 54.148438 695.101562 53.191406 692.566406 53.191406 689.796875 L 53.191406 630.671875 C 53.191406 628.300781 52.730469 626.257812 51.808594 624.542969 C 50.886719 622.828125 49.730469 621.445312 48.347656 620.390625 C 46.964844 619.335938 45.382812 618.578125 43.601562 618.117188 C 41.824219 617.65625 40.074219 617.421875 38.363281 617.421875 C 36.648438 617.421875 35.035156 617.6875 33.515625 618.214844 C 32 618.742188 30.648438 619.335938 29.464844 619.996094 C 28.277344 620.652344 27.320312 621.28125 26.597656 621.871094 L 25.507812 622.761719 L 25.507812 681.691406 C 25.507812 683.007812 25.707031 683.929688 26.101562 684.457031 C 26.496094 684.984375 27.023438 685.511719 27.683594 686.039062 C 28.605469 686.699219 29.5625 687.753906 30.550781 689.203125 C 31.539062 690.652344 32.035156 692.632812 32.035156 695.136719 L 32.035156 700.871094 L 0 700.871094 L 0 694.9375 C 0 692.433594 0.496094 690.457031 1.484375 689.007812 C 2.472656 687.554688 3.492188 686.5 4.546875 685.84375 C 5.207031 685.316406 5.734375 684.789062 6.128906 684.261719 C 6.527344 683.734375 6.722656 682.746094 6.722656 681.292969 L 6.722656 622.960938 C 6.722656 621.90625 6.394531 621.015625 5.734375 620.289062 C 5.074219 619.566406 4.382812 618.839844 3.660156 618.117188 C 2.933594 617.390625 2.242188 616.632812 1.582031 615.839844 C 0.921875 615.050781 0.59375 613.996094 0.59375 612.679688 L 0.59375 602.199219 L 20.960938 602.199219 C 22.015625 602.199219 22.839844 602.429688 23.433594 602.890625 C 24.027344 603.351562 24.453125 603.84375 24.71875 604.371094 C 25.113281 604.898438 25.375 605.558594 25.507812 606.351562 C 26.957031 605.425781 28.671875 604.570312 30.648438 603.78125 C 32.363281 603.121094 34.375 602.527344 36.679688 602 C 38.988281 601.472656 41.527344 601.207031 44.292969 601.207031 C 54.445312 601.207031 61.695312 603.976562 66.046875 609.515625 C 67.890625 608.0625 70 606.679688 72.375 605.359375 C 74.484375 604.308594 77.019531 603.351562 79.988281 602.496094 C 82.953125 601.636719 86.480469 601.207031 90.566406 601.207031 C 100.453125 601.207031 107.570312 603.746094 111.921875 608.820312 C 116.273438 613.898438 118.445312 621.511719 118.445312 631.660156 L 118.445312 681.886719 C 118.445312 683.074219 118.613281 683.929688 118.941406 684.457031 C 119.269531 684.984375 119.765625 685.511719 120.425781 686.039062 Z M 169.132812 601.207031 C 173.878906 601.207031 178.164062 601.902344 181.988281 603.285156 C 185.808594 604.667969 189.105469 606.582031 191.875 609.019531 C 194.640625 611.457031 196.75 614.292969 198.203125 617.523438 C 199.652344 620.753906 200.375 624.148438 200.375 627.707031 L 200.375 674.175781 C 200.375 682.746094 197.542969 689.5 191.875 694.445312 C 186.203125 699.386719 178.625 701.859375 169.132812 701.859375 C 159.246094 701.859375 151.535156 699.289062 145.996094 694.148438 C 140.460938 689.007812 137.691406 681.359375 137.691406 671.210938 L 137.691406 631.265625 C 137.691406 621.117188 140.460938 613.566406 145.996094 608.625 C 151.535156 603.679688 159.246094 601.210938 169.132812 601.210938 Z M 169.132812 686.039062 C 172.691406 686.039062 175.660156 684.917969 178.03125 682.679688 C 180.40625 680.4375 181.589844 677.074219 181.589844 672.59375 L 181.589844 631.265625 C 181.589844 625.597656 180.339844 621.773438 177.832031 619.796875 C 175.328125 617.820312 172.296875 616.832031 168.738281 616.832031 C 165.046875 616.832031 162.082031 617.785156 159.839844 619.699219 C 157.597656 621.609375 156.476562 625.203125 156.476562 630.472656 L 156.476562 672.199219 C 156.476562 677.339844 157.664062 680.933594 160.039062 682.976562 C 162.410156 685.019531 165.441406 686.039062 169.132812 686.039062 Z M 285.273438 685.84375 C 286.195312 686.632812 287.148438 687.753906 288.140625 689.203125 C 289.128906 690.652344 289.621094 692.628906 289.621094 695.136719 L 289.621094 700.871094 L 273.210938 700.871094 C 269.78125 700.871094 267.441406 699.648438 266.191406 697.210938 C 264.9375 694.773438 264.3125 691.839844 264.3125 688.414062 L 264.3125 632.054688 C 264.3125 626.652344 263.058594 622.894531 260.554688 620.785156 C 258.050781 618.675781 255.015625 617.621094 251.457031 617.621094 C 249.214844 617.621094 247.304688 617.917969 245.722656 618.511719 C 244.140625 619.105469 242.824219 619.730469 241.769531 620.390625 C 240.449219 621.179688 239.394531 622.035156 238.605469 622.960938 L 238.605469 681.6875 C 238.605469 683.007812 238.800781 683.929688 239.199219 684.457031 C 239.59375 684.984375 240.121094 685.445312 240.78125 685.839844 C 241.835938 686.632812 242.855469 687.753906 243.84375 689.203125 C 244.832031 690.652344 245.328125 692.628906 245.328125 695.136719 L 245.328125 700.871094 L 213.097656 700.871094 L 213.097656 694.9375 C 213.097656 692.433594 213.589844 690.457031 214.578125 689.003906 C 215.566406 687.554688 216.589844 686.5 217.644531 685.84375 C 218.304688 685.316406 218.832031 684.785156 219.226562 684.257812 C 219.621094 683.730469 219.820312 682.742188 219.820312 681.292969 L 219.820312 620.785156 C 219.820312 619.992188 219.589844 619.335938 219.128906 618.808594 C 218.664062 618.28125 218.105469 617.820312 217.445312 617.421875 C 216.523438 616.765625 215.566406 615.710938 214.578125 614.257812 C 213.589844 612.808594 213.097656 610.964844 213.097656 608.722656 L 213.097656 602 L 234.648438 602 C 235.703125 602 236.460938 602.230469 236.921875 602.691406 C 237.386719 603.152344 237.746094 603.648438 238.011719 604.175781 C 238.273438 604.703125 238.472656 605.359375 238.605469 606.152344 C 239.921875 605.230469 241.4375 604.4375 243.152344 603.777344 C 244.601562 603.121094 246.414062 602.527344 248.589844 602 C 250.765625 601.472656 253.238281 601.207031 256.003906 601.207031 C 265.894531 601.207031 272.878906 603.84375 276.964844 609.117188 C 281.054688 614.390625 283.097656 622.101562 283.097656 632.253906 L 283.097656 681.886719 C 283.097656 683.074219 283.292969 683.929688 283.691406 684.457031 C 284.085938 684.984375 284.613281 685.445312 285.269531 685.84375 Z M 372.539062 602 L 372.539062 608.128906 C 372.539062 610.632812 372.011719 612.613281 370.957031 614.0625 C 369.902344 615.511719 368.847656 616.632812 367.792969 617.421875 C 367.136719 617.820312 366.640625 618.28125 366.3125 618.808594 C 365.980469 619.335938 365.816406 620.257812 365.816406 621.578125 L 365.816406 722.226562 C 365.816406 732.378906 362.980469 739.890625 357.3125 744.769531 C 351.644531 749.648438 343.867188 752.085938 333.980469 752.085938 C 329.234375 752.085938 324.917969 751.394531 321.027344 750.007812 C 317.140625 748.625 313.8125 746.746094 311.042969 744.375 C 308.273438 742 306.132812 739.234375 304.617188 736.070312 C 303.097656 732.90625 302.339844 729.542969 302.339844 725.984375 L 302.339844 714.515625 L 310.449219 714.515625 C 317.566406 714.515625 321.128906 717.546875 321.128906 723.609375 L 321.128906 725.984375 C 321.128906 729.28125 322.082031 731.851562 323.996094 733.695312 C 325.90625 735.542969 328.90625 736.464844 332.992188 736.464844 C 336.683594 736.464844 339.914062 735.574219 342.679688 733.792969 C 345.449219 732.015625 346.832031 728.488281 346.832031 723.214844 L 346.832031 696.71875 C 344.59375 698.433594 342.351562 699.785156 340.109375 700.773438 C 337.867188 701.761719 334.769531 702.253906 330.816406 702.253906 C 321.0625 702.253906 313.910156 699.222656 309.363281 693.160156 C 304.8125 687.09375 302.539062 678.988281 302.539062 668.835938 L 302.539062 633.046875 C 302.539062 622.894531 304.582031 615.085938 308.667969 609.613281 C 312.757812 604.140625 319.675781 601.40625 329.433594 601.40625 C 334.441406 601.40625 338.460938 602.066406 341.496094 603.382812 C 344.527344 604.703125 346.304688 605.691406 346.832031 606.351562 C 346.964844 605.558594 347.230469 604.835938 347.625 604.175781 C 347.886719 603.648438 348.316406 603.152344 348.910156 602.691406 C 349.503906 602.230469 350.261719 602 351.183594 602 Z M 346.832031 678.722656 L 346.832031 622.566406 C 345.910156 621.511719 344.855469 620.585938 343.667969 619.796875 C 342.613281 619.136719 341.328125 618.511719 339.8125 617.917969 C 338.296875 617.324219 336.417969 617.027344 334.179688 617.027344 C 330.488281 617.027344 327.421875 618.214844 324.984375 620.585938 C 322.542969 622.960938 321.324219 626.320312 321.324219 630.671875 L 321.324219 672.394531 C 321.324219 677.007812 322.246094 680.570312 324.09375 683.074219 C 325.9375 685.578125 328.839844 686.832031 332.792969 686.832031 C 335.296875 686.832031 337.40625 686.535156 339.121094 685.941406 C 340.835938 685.347656 342.285156 684.722656 343.472656 684.0625 C 344.789062 683.273438 345.910156 682.28125 346.832031 681.097656 Z M 416.699219 601.207031 C 421.445312 601.207031 425.730469 601.902344 429.554688 603.285156 C 433.375 604.667969 436.671875 606.582031 439.441406 609.019531 C 442.210938 611.457031 444.320312 614.292969 445.769531 617.523438 C 447.21875 620.753906 447.945312 624.148438 447.945312 627.707031 L 447.945312 674.175781 C 447.945312 682.746094 445.109375 689.5 439.441406 694.445312 C 433.773438 699.386719 426.191406 701.859375 416.699219 701.859375 C 406.8125 701.859375 399.101562 699.289062 393.566406 694.148438 C 388.027344 689.007812 385.257812 681.359375 385.257812 671.210938 L 385.257812 631.265625 C 385.257812 621.117188 388.027344 613.566406 393.566406 608.625 C 399.101562 603.679688 406.8125 601.210938 416.699219 601.210938 Z M 416.699219 686.039062 C 420.261719 686.039062 423.226562 684.917969 425.597656 682.679688 C 427.972656 680.4375 429.160156 677.074219 429.160156 672.59375 L 429.160156 631.265625 C 429.160156 625.597656 427.90625 621.773438 425.402344 619.796875 C 422.894531 617.820312 419.863281 616.832031 416.304688 616.832031 C 412.613281 616.832031 409.648438 617.785156 407.40625 619.699219 C 405.164062 621.609375 404.046875 625.203125 404.046875 630.472656 L 404.046875 672.199219 C 404.046875 677.339844 405.230469 680.933594 407.605469 682.976562 C 409.976562 685.019531 413.007812 686.039062 416.699219 686.039062 Z M 517.21875 637.199219 C 510.097656 637.199219 506.539062 634.496094 506.539062 629.089844 C 506.539062 625.796875 505.519531 622.894531 503.472656 620.390625 C 501.429688 617.886719 498.628906 616.632812 495.070312 616.632812 C 491.378906 616.632812 488.511719 617.851562 486.46875 620.292969 C 484.425781 622.730469 483.402344 626.058594 483.402344 630.277344 L 483.402344 672.394531 C 483.402344 677.667969 484.425781 681.261719 486.46875 683.171875 C 488.511719 685.085938 491.378906 686.039062 495.070312 686.039062 C 498.628906 686.039062 501.429688 684.984375 503.472656 682.875 C 505.519531 680.765625 506.539062 677.40625 506.539062 672.792969 L 506.539062 672.59375 C 506.539062 666.398438 510.097656 663.300781 517.21875 663.300781 L 525.324219 663.300781 L 525.324219 674.769531 C 525.324219 683.46875 522.65625 690.128906 517.316406 694.742188 C 511.976562 699.355469 504.5625 701.660156 495.070312 701.660156 C 485.183594 701.660156 477.636719 699.222656 472.429688 694.34375 C 467.222656 689.46875 464.617188 682.019531 464.617188 672 L 464.617188 630.871094 C 464.617188 620.71875 467.222656 613.207031 472.429688 608.328125 C 477.636719 603.449219 485.183594 601.011719 495.070312 601.011719 C 499.816406 601.011719 504.066406 601.703125 507.824219 603.089844 C 511.582031 604.472656 514.746094 606.351562 517.316406 608.722656 C 519.886719 611.097656 521.863281 613.863281 523.25 617.027344 C 524.632812 620.191406 525.324219 623.554688 525.324219 627.113281 L 525.324219 637.199219 Z M 607.453125 685.84375 C 608.375 686.5 609.363281 687.554688 610.417969 689.003906 C 611.472656 690.457031 612 692.433594 612 694.9375 L 612 700.871094 L 590.839844 700.871094 C 589.917969 700.871094 589.195312 700.671875 588.667969 700.277344 C 588.140625 699.882812 587.675781 699.417969 587.28125 698.890625 C 586.753906 698.363281 586.425781 697.707031 586.292969 696.914062 C 585.371094 697.835938 584.183594 698.628906 582.734375 699.289062 C 581.414062 699.945312 579.734375 700.472656 577.691406 700.871094 C 575.648438 701.265625 573.175781 701.464844 570.277344 701.464844 C 560.519531 701.464844 553.371094 698.660156 548.820312 693.058594 C 544.273438 687.457031 542 679.578125 542 669.429688 L 542 633.636719 C 542 623.488281 544.042969 615.511719 548.128906 609.710938 C 552.214844 603.910156 559.136719 601.011719 568.890625 601.011719 C 571.660156 601.011719 574.132812 601.308594 576.308594 601.898438 C 578.480469 602.492188 580.296875 603.121094 581.746094 603.777344 C 583.457031 604.570312 584.976562 605.425781 586.292969 606.347656 L 586.292969 572.335938 C 586.292969 570.492188 585.566406 569.109375 584.117188 568.183594 C 583.0625 567.394531 582.042969 566.308594 581.054688 564.921875 C 580.0625 563.539062 579.570312 561.660156 579.570312 559.285156 L 579.570312 552.761719 L 593.410156 552.761719 C 597.894531 552.761719 600.992188 553.683594 602.707031 555.53125 C 604.417969 557.375 605.277344 560.144531 605.277344 563.835938 L 605.277344 681.492188 C 605.277344 682.808594 605.472656 683.730469 605.871094 684.257812 C 606.265625 684.785156 606.792969 685.316406 607.453125 685.84375 Z M 586.292969 623.355469 C 585.105469 622.300781 583.855469 621.3125 582.535156 620.390625 C 581.351562 619.730469 580.03125 619.070312 578.582031 618.414062 C 577.132812 617.753906 575.484375 617.421875 573.636719 617.421875 C 569.945312 617.421875 566.882812 618.609375 564.441406 620.984375 C 562.003906 623.355469 560.785156 627.246094 560.785156 632.648438 L 560.785156 670.417969 C 560.785156 675.691406 561.804688 679.546875 563.851562 681.984375 C 565.894531 684.425781 568.695312 685.644531 572.253906 685.644531 C 574.496094 685.644531 576.503906 685.316406 578.285156 684.65625 C 580.066406 683.996094 581.546875 683.273438 582.734375 682.480469 C 583.921875 681.691406 584.808594 680.933594 585.402344 680.207031 L 586.292969 679.117188 Z M 586.292969 623.355469 "/>
</svg>
